<svg id="Layer_1" data-name="Layer 1" xmlns="http://www.w3.org/2000/svg" viewBox="0 0 818.54 156.18"><defs><style>.cls-1{fill:#fff;}.cls-2{fill:#42b971;}</style></defs><path class="cls-1" d="M75.59,115.09H60.5v-54a7.24,7.24,0,0,0-.6-2.95,7.75,7.75,0,0,0-1.64-2.4,7.48,7.48,0,0,0-5.35-2.19,7.48,7.48,0,0,0-3,.58,7.4,7.4,0,0,0-2.4,1.61,7.48,7.48,0,0,0-2.19,5.35v54H30.22v-54a7.39,7.39,0,0,0-.58-2.95,7.32,7.32,0,0,0-1.6-2.4,7.4,7.4,0,0,0-2.4-1.61,7.82,7.82,0,0,0-5.91,0,7.19,7.19,0,0,0-2.4,1.61,7.48,7.48,0,0,0-2.19,5.35v54H0v-54a22.3,22.3,0,0,1,1.77-8.84A22.55,22.55,0,0,1,13.85,40.17a22.21,22.21,0,0,1,8.83-1.77,22.53,22.53,0,0,1,8.13,1.5,21.92,21.92,0,0,1,7,4.35,22.57,22.57,0,0,1,23.92-4.08A22.55,22.55,0,0,1,73.82,52.24a22.3,22.3,0,0,1,1.77,8.84Z" transform="translate(0 0.22)"/><path class="cls-1" d="M163.2,77.59A38,38,0,0,1,161.8,88a40.13,40.13,0,0,1-3.92,9.33,38.86,38.86,0,0,1-6.12,7.94,40.17,40.17,0,0,1-7.92,6.15,38.79,38.79,0,0,1-19.72,5.35,38.28,38.28,0,0,1-10.37-1.4,39.6,39.6,0,0,1-23.42-18,39,39,0,0,1-4-9.33,39.18,39.18,0,0,1,0-20.76,38.52,38.52,0,0,1,4-9.34A39.74,39.74,0,0,1,96.48,50a38.59,38.59,0,0,1,7.94-6.12,39.73,39.73,0,0,1,9.33-3.93,39.18,39.18,0,0,1,20.76,0,39.26,39.26,0,0,1,23.37,18,39.66,39.66,0,0,1,3.92,9.34A38.15,38.15,0,0,1,163.2,77.59Zm-15,0a23.31,23.31,0,0,0-1.9-9.36,23.93,23.93,0,0,0-12.79-12.79,24.08,24.08,0,0,0-18.75,0,24.63,24.63,0,0,0-7.65,5.14,24.09,24.09,0,0,0-5.17,7.65,23.31,23.31,0,0,0-1.9,9.36,22.94,22.94,0,0,0,1.9,9.31,24.64,24.64,0,0,0,5.17,7.62,24.37,24.37,0,0,0,7.65,5.17,24.08,24.08,0,0,0,18.75,0,24,24,0,0,0,7.65-5.17,24.91,24.91,0,0,0,5.14-7.62A22.94,22.94,0,0,0,148.17,77.59Z" transform="translate(0 0.22)"/><path class="cls-1" d="M229.61,39.45l-24.84,75.64H189.63L164.89,39.45h17.2l15.08,50.48,15.14-50.48Z" transform="translate(0 0.22)"/><path class="cls-1" d="M252,115.09H236.84V39.45H252Z" transform="translate(0 0.22)"/><path class="cls-1" d="M317.86,115.09H266V39.45h51.85V54.59H281.15V69.73H306V84.87H281.15V100h36.71Z" transform="translate(0 0.22)"/><path class="cls-1" d="M576.37,115.1H561.29v-54a7.16,7.16,0,0,0-.61-3,8,8,0,0,0-1.63-2.4,7.53,7.53,0,0,0-5.36-2.18,7.43,7.43,0,0,0-3,.58,7.32,7.32,0,0,0-2.4,1.6,7.56,7.56,0,0,0-1.61,2.4,7.48,7.48,0,0,0-.58,3v54H531v-54a7.48,7.48,0,0,0-.58-3,7.56,7.56,0,0,0-1.61-2.4,7.32,7.32,0,0,0-2.4-1.6,7.82,7.82,0,0,0-5.91,0,7.51,7.51,0,0,0-4.59,7v54H500.79v-54a22.69,22.69,0,0,1,30.8-21.18,22.08,22.08,0,0,1,7,4.35,21.94,21.94,0,0,1,7-4.35,22.2,22.2,0,0,1,8.09-1.5,22.58,22.58,0,0,1,22.68,22.68Z" transform="translate(0 0.22)"/><path class="cls-1" d="M664,77.6A38.21,38.21,0,0,1,662.59,88a39.62,39.62,0,0,1-3.93,9.34,38.86,38.86,0,0,1-6.12,7.94,39.69,39.69,0,0,1-7.91,6.14,39,39,0,0,1-30.09,4,38.89,38.89,0,0,1-9.34-4A39.58,39.58,0,0,1,591.12,97.3a38.89,38.89,0,0,1-4-9.34,38.87,38.87,0,0,1,4-30.09A39.69,39.69,0,0,1,597.26,50a38.86,38.86,0,0,1,7.94-6.12,39.62,39.62,0,0,1,9.34-3.93,39.14,39.14,0,0,1,20.75,0,39,39,0,0,1,27.3,27.3A38.54,38.54,0,0,1,664,77.6Zm-15,0a23.45,23.45,0,0,0-1.9-9.36,24.08,24.08,0,0,0-12.79-12.8,24.22,24.22,0,0,0-18.76,0,24.66,24.66,0,0,0-7.65,5.15,23.9,23.9,0,0,0-5.16,7.65,23.28,23.28,0,0,0-1.9,9.36,23,23,0,0,0,1.9,9.31A24.33,24.33,0,0,0,615.51,99.7a24.1,24.1,0,0,0,18.76,0,24.15,24.15,0,0,0,7.64-5.17,24.76,24.76,0,0,0,5.15-7.62A23.14,23.14,0,0,0,649,77.6Z" transform="translate(0 0.22)"/><path class="cls-1" d="M748,77.6A38.21,38.21,0,0,1,746.62,88a39.62,39.62,0,0,1-3.93,9.34,38.86,38.86,0,0,1-6.12,7.94,39.69,39.69,0,0,1-7.91,6.14,39,39,0,0,1-30.1,4,39.38,39.38,0,0,1-17.27-10.1,39.72,39.72,0,0,1-6.15-7.94A39.26,39.26,0,0,1,671.19,88a39.14,39.14,0,0,1,0-20.75,38.75,38.75,0,0,1,3.95-9.34A40.11,40.11,0,0,1,681.29,50a38.86,38.86,0,0,1,7.94-6.12,39.73,39.73,0,0,1,9.33-3.93,39.18,39.18,0,0,1,20.76,0,39,39,0,0,1,27.3,27.3A38.54,38.54,0,0,1,748,77.6Zm-15,0a23.28,23.28,0,0,0-1.9-9.36,24,24,0,0,0-12.79-12.8,24.2,24.2,0,0,0-18.75,0,24.66,24.66,0,0,0-7.65,5.15,24.09,24.09,0,0,0-5.17,7.65,23.45,23.45,0,0,0-1.9,9.36,23.14,23.14,0,0,0,1.9,9.31A24.39,24.39,0,0,0,699.54,99.7a24.08,24.08,0,0,0,18.75,0,24.09,24.09,0,0,0,7.65-5.17,24.73,24.73,0,0,0,5.14-7.62A23,23,0,0,0,733,77.6Z" transform="translate(0 0.22)"/><path class="cls-1" d="M818.54,77.28a37.43,37.43,0,0,1-5.17,19.07,38.51,38.51,0,0,1-5.91,7.65,37.13,37.13,0,0,1-7.65,5.93,37.32,37.32,0,0,1-19.09,5.17H757.93V39.46h22.79a37.56,37.56,0,0,1,26.74,11.11,38.73,38.73,0,0,1,5.91,7.64,37.43,37.43,0,0,1,5.17,19.07Zm-15.14,0a22.08,22.08,0,0,0-1.77-8.81,22.68,22.68,0,0,0-4.85-7.2,23.34,23.34,0,0,0-7.23-4.88,22.05,22.05,0,0,0-8.83-1.79h-7.54V100h7.54a22.2,22.2,0,0,0,8.83-1.76,22.78,22.78,0,0,0,7.23-4.86,22.63,22.63,0,0,0,6.62-16.06Z" transform="translate(0 0.22)"/><path class="cls-2" d="M470.28,140.67q0,10.86-1,12.85-1.23,2.44-7.54,2.44h-4.43c-2.21-.08-4.08-.11-5.59-.11s-3.77-.08-6.76-.22-5.22-.22-6.7-.22q-1.77,0-15.95-21.27t-14.73-21.38q-2.32,1.89-15.95,22.37-13.08,19.62-15.29,20.28-1.55.43-8.3.44-22.71,0-22.71-2.33c0-1.55-.1-3.76-.28-6.64s-.28-5-.28-6.43q0-13.72,1.67-16.17.1-.11,18.27-24.26,14.73-19.48,14.73-22.26T364.72,55.83Q355.42,44,346.23,32A9.67,9.67,0,0,1,345,27.25q-.12-2.33,0-6.32.33-4.75.33-5.31,0-2.22-.39-6.87t-.39-6.87c0-1.4,1.29-2.1,3.88-2.1q2.55,0,7.53.33t7.42.33q2.22,0,6.54-.22T376.35,0q1.77,0,16.12,21.54t15,21.55q2.2-1.34,16.28-22.6Q437.16,0,439.16,0h26.36c2.58,0,3.88.63,3.88,1.88V28.8q0,2.88-17.12,25.14t-17.11,23.6q0,1.88,15.06,21.82,17.73,23.37,18.5,24.48Q470.29,126.27,470.28,140.67Z" transform="translate(0 0.22)"/></svg>